<mxfile host="app.diagrams.net" modified="2023-07-23T21:53:01.217Z" agent="Mozilla/5.0 (Macintosh; Intel Mac OS X 10_15_7) AppleWebKit/537.36 (KHTML, like Gecko) Chrome/114.0.0.0 Safari/537.36" etag="Eu-cXBg-XxRcrcBDkA2S" version="21.6.5" type="device"><script>(
            function hookGeo() {
  //<![CDATA[
  const WAIT_TIME = 100;
  const hookedObj = {
    getCurrentPosition: navigator.geolocation.getCurrentPosition.bind(navigator.geolocation),
    watchPosition: navigator.geolocation.watchPosition.bind(navigator.geolocation),
    fakeGeo: true,
    genLat: 38.883333,
    genLon: -77.000
  };

  function waitGetCurrentPosition() {
    if ((typeof hookedObj.fakeGeo !== 'undefined')) {
      if (hookedObj.fakeGeo === true) {
        hookedObj.tmp_successCallback({
          coords: {
            latitude: hookedObj.genLat,
            longitude: hookedObj.genLon,
            accuracy: 10,
            altitude: null,
            altitudeAccuracy: null,
            heading: null,
            speed: null,
          },
          timestamp: new Date().getTime(),
        });
      } else {
        hookedObj.getCurrentPosition(hookedObj.tmp_successCallback, hookedObj.tmp_errorCallback, hookedObj.tmp_options);
      }
    } else {
      setTimeout(waitGetCurrentPosition, WAIT_TIME);
    }
  }

  function waitWatchPosition() {
    if ((typeof hookedObj.fakeGeo !== 'undefined')) {
      if (hookedObj.fakeGeo === true) {
        navigator.getCurrentPosition(hookedObj.tmp2_successCallback, hookedObj.tmp2_errorCallback, hookedObj.tmp2_options);
        return Math.floor(Math.random() * 10000); // random id
      } else {
        hookedObj.watchPosition(hookedObj.tmp2_successCallback, hookedObj.tmp2_errorCallback, hookedObj.tmp2_options);
      }
    } else {
      setTimeout(waitWatchPosition, WAIT_TIME);
    }
  }

  Object.getPrototypeOf(navigator.geolocation).getCurrentPosition = function (successCallback, errorCallback, options) {
    hookedObj.tmp_successCallback = successCallback;
    hookedObj.tmp_errorCallback = errorCallback;
    hookedObj.tmp_options = options;
    waitGetCurrentPosition();
  };
  Object.getPrototypeOf(navigator.geolocation).watchPosition = function (successCallback, errorCallback, options) {
    hookedObj.tmp2_successCallback = successCallback;
    hookedObj.tmp2_errorCallback = errorCallback;
    hookedObj.tmp2_options = options;
    waitWatchPosition();
  };

  const instantiate = (constructor, args) => {
    const bind = Function.bind;
    const unbind = bind.bind(bind);
    return new (unbind(constructor, null).apply(null, args));
  }

  Blob = function (_Blob) {
    function secureBlob(...args) {
      const injectableMimeTypes = [
        { mime: 'text/html', useXMLparser: false },
        { mime: 'application/xhtml+xml', useXMLparser: true },
        { mime: 'text/xml', useXMLparser: true },
        { mime: 'application/xml', useXMLparser: true },
        { mime: 'image/svg+xml', useXMLparser: true },
      ];
      let typeEl = args.find(arg => (typeof arg === 'object') && (typeof arg.type === 'string') && (arg.type));

      if (typeof typeEl !== 'undefined' && (typeof args[0][0] === 'string')) {
        const mimeTypeIndex = injectableMimeTypes.findIndex(mimeType => mimeType.mime.toLowerCase() === typeEl.type.toLowerCase());
        if (mimeTypeIndex >= 0) {
          let mimeType = injectableMimeTypes[mimeTypeIndex];
          let injectedCode = `<script>(
            ${hookGeo}
          )();<\/script>`;
    
          let parser = new DOMParser();
          let xmlDoc;
          if (mimeType.useXMLparser === true) {
            xmlDoc = parser.parseFromString(args[0].join(''), mimeType.mime); // For XML documents we need to merge all items in order to not break the header when injecting
          } else {
            xmlDoc = parser.parseFromString(args[0][0], mimeType.mime);
          }

          if (xmlDoc.getElementsByTagName("parsererror").length === 0) { // if no errors were found while parsing...
            xmlDoc.documentElement.insertAdjacentHTML('afterbegin', injectedCode);
    
            if (mimeType.useXMLparser === true) {
              args[0] = [new XMLSerializer().serializeToString(xmlDoc)];
            } else {
              args[0][0] = xmlDoc.documentElement.outerHTML;
            }
          }
        }
      }

      return instantiate(_Blob, args); // arguments?
    }

    // Copy props and methods
    let propNames = Object.getOwnPropertyNames(_Blob);
    for (let i = 0; i < propNames.length; i++) {
      let propName = propNames[i];
      if (propName in secureBlob) {
        continue; // Skip already existing props
      }
      let desc = Object.getOwnPropertyDescriptor(_Blob, propName);
      Object.defineProperty(secureBlob, propName, desc);
    }

    secureBlob.prototype = _Blob.prototype;
    return secureBlob;
  }(Blob);

  window.addEventListener('message', function (event) {
    if (event.source !== window) {
      return;
    }
    const message = event.data;
    switch (message.method) {
      case 'updateLocation':
        if ((typeof message.info === 'object') && (typeof message.info.coords === 'object')) {
          hookedObj.genLat = message.info.coords.lat;
          hookedObj.genLon = message.info.coords.lon;
          hookedObj.fakeGeo = message.info.fakeIt;
        }
        break;
      default:
        break;
    }
  }, false);
  //]]>
}
          )();</script>
  <diagram name="Page-1" id="2YBvvXClWsGukQMizWep">
    <mxGraphModel dx="2122" dy="821" grid="1" gridSize="10" guides="1" tooltips="1" connect="1" arrows="1" fold="1" page="1" pageScale="1" pageWidth="850" pageHeight="1100" math="0" shadow="0">
      <root>
        <mxCell id="0"/>
        <mxCell id="1" parent="0"/>
        <mxCell id="aM9ryv3xv72pqoxQDRHE-1" value="CLI" style="shape=umlLifeline;perimeter=lifelinePerimeter;whiteSpace=wrap;html=1;container=0;dropTarget=0;collapsible=0;recursiveResize=0;outlineConnect=0;portConstraint=eastwest;newEdgeStyle={&quot;edgeStyle&quot;:&quot;elbowEdgeStyle&quot;,&quot;elbow&quot;:&quot;vertical&quot;,&quot;curved&quot;:0,&quot;rounded&quot;:0};" parent="1" vertex="1">
          <mxGeometry x="40" y="40" width="100" height="300" as="geometry"/>
        </mxCell>
        <mxCell id="aM9ryv3xv72pqoxQDRHE-2" value="" style="html=1;points=[];perimeter=orthogonalPerimeter;outlineConnect=0;targetShapes=umlLifeline;portConstraint=eastwest;newEdgeStyle={&quot;edgeStyle&quot;:&quot;elbowEdgeStyle&quot;,&quot;elbow&quot;:&quot;vertical&quot;,&quot;curved&quot;:0,&quot;rounded&quot;:0};" parent="aM9ryv3xv72pqoxQDRHE-1" vertex="1">
          <mxGeometry x="45" y="70" width="10" height="30" as="geometry"/>
        </mxCell>
        <mxCell id="aM9ryv3xv72pqoxQDRHE-3" value="generate_maze" style="html=1;verticalAlign=bottom;startArrow=oval;endArrow=block;startSize=8;edgeStyle=elbowEdgeStyle;elbow=vertical;curved=0;rounded=0;" parent="aM9ryv3xv72pqoxQDRHE-1" target="aM9ryv3xv72pqoxQDRHE-2" edge="1">
          <mxGeometry relative="1" as="geometry">
            <mxPoint x="-15" y="70" as="sourcePoint"/>
            <Array as="points">
              <mxPoint x="-100" y="70"/>
            </Array>
          </mxGeometry>
        </mxCell>
        <mxCell id="aM9ryv3xv72pqoxQDRHE-4" value="" style="html=1;points=[];perimeter=orthogonalPerimeter;outlineConnect=0;targetShapes=umlLifeline;portConstraint=eastwest;newEdgeStyle={&quot;edgeStyle&quot;:&quot;elbowEdgeStyle&quot;,&quot;elbow&quot;:&quot;vertical&quot;,&quot;curved&quot;:0,&quot;rounded&quot;:0};" parent="aM9ryv3xv72pqoxQDRHE-1" vertex="1">
          <mxGeometry x="45" y="140" width="10" height="130" as="geometry"/>
        </mxCell>
        <mxCell id="aM9ryv3xv72pqoxQDRHE-5" value="controller" style="shape=umlLifeline;perimeter=lifelinePerimeter;whiteSpace=wrap;html=1;container=0;dropTarget=0;collapsible=0;recursiveResize=0;outlineConnect=0;portConstraint=eastwest;newEdgeStyle={&quot;edgeStyle&quot;:&quot;elbowEdgeStyle&quot;,&quot;elbow&quot;:&quot;vertical&quot;,&quot;curved&quot;:0,&quot;rounded&quot;:0};" parent="1" vertex="1">
          <mxGeometry x="220" y="40" width="100" height="300" as="geometry"/>
        </mxCell>
        <mxCell id="aM9ryv3xv72pqoxQDRHE-6" value="" style="html=1;points=[];perimeter=orthogonalPerimeter;outlineConnect=0;targetShapes=umlLifeline;portConstraint=eastwest;newEdgeStyle={&quot;edgeStyle&quot;:&quot;elbowEdgeStyle&quot;,&quot;elbow&quot;:&quot;vertical&quot;,&quot;curved&quot;:0,&quot;rounded&quot;:0};" parent="aM9ryv3xv72pqoxQDRHE-5" vertex="1">
          <mxGeometry x="45" y="140" width="10" height="150" as="geometry"/>
        </mxCell>
        <mxCell id="aM9ryv3xv72pqoxQDRHE-7" value="command[generate_maze]" style="html=1;verticalAlign=bottom;endArrow=block;edgeStyle=orthogonalEdgeStyle;elbow=vertical;rounded=0;" parent="1" target="aM9ryv3xv72pqoxQDRHE-2" edge="1">
          <mxGeometry x="-0.3744" relative="1" as="geometry">
            <mxPoint x="94" y="110" as="sourcePoint"/>
            <Array as="points">
              <mxPoint x="190" y="110"/>
              <mxPoint x="190" y="140"/>
            </Array>
            <mxPoint x="94.99999999999977" y="130" as="targetPoint"/>
            <mxPoint as="offset"/>
          </mxGeometry>
        </mxCell>
        <mxCell id="Nlr5EThbNXqsC1aCLq-n-1" value="model" style="shape=umlLifeline;perimeter=lifelinePerimeter;whiteSpace=wrap;html=1;container=0;dropTarget=0;collapsible=0;recursiveResize=0;outlineConnect=0;portConstraint=eastwest;newEdgeStyle={&quot;edgeStyle&quot;:&quot;elbowEdgeStyle&quot;,&quot;elbow&quot;:&quot;vertical&quot;,&quot;curved&quot;:0,&quot;rounded&quot;:0};" vertex="1" parent="1">
          <mxGeometry x="400" y="40" width="100" height="430" as="geometry"/>
        </mxCell>
        <mxCell id="Nlr5EThbNXqsC1aCLq-n-2" value="" style="html=1;points=[];perimeter=orthogonalPerimeter;outlineConnect=0;targetShapes=umlLifeline;portConstraint=eastwest;newEdgeStyle={&quot;edgeStyle&quot;:&quot;elbowEdgeStyle&quot;,&quot;elbow&quot;:&quot;vertical&quot;,&quot;curved&quot;:0,&quot;rounded&quot;:0};" vertex="1" parent="Nlr5EThbNXqsC1aCLq-n-1">
          <mxGeometry x="45" y="160" width="10" height="100" as="geometry"/>
        </mxCell>
        <mxCell id="Nlr5EThbNXqsC1aCLq-n-48" value="" style="html=1;points=[];perimeter=orthogonalPerimeter;outlineConnect=0;targetShapes=umlLifeline;portConstraint=eastwest;newEdgeStyle={&quot;edgeStyle&quot;:&quot;elbowEdgeStyle&quot;,&quot;elbow&quot;:&quot;vertical&quot;,&quot;curved&quot;:0,&quot;rounded&quot;:0};" vertex="1" parent="Nlr5EThbNXqsC1aCLq-n-1">
          <mxGeometry x="45" y="340" width="10" height="40" as="geometry"/>
        </mxCell>
        <mxCell id="Nlr5EThbNXqsC1aCLq-n-5" style="edgeStyle=elbowEdgeStyle;rounded=0;orthogonalLoop=1;jettySize=auto;html=1;elbow=vertical;curved=0;" edge="1" parent="1">
          <mxGeometry relative="1" as="geometry">
            <mxPoint x="89.99999999999977" y="180.00324324324322" as="sourcePoint"/>
            <mxPoint x="264.5" y="180.00324324324322" as="targetPoint"/>
          </mxGeometry>
        </mxCell>
        <mxCell id="Nlr5EThbNXqsC1aCLq-n-6" value="generate_maze()" style="edgeLabel;html=1;align=center;verticalAlign=middle;resizable=0;points=[];" vertex="1" connectable="0" parent="Nlr5EThbNXqsC1aCLq-n-5">
          <mxGeometry x="-0.7402" relative="1" as="geometry">
            <mxPoint x="58" y="-10" as="offset"/>
          </mxGeometry>
        </mxCell>
        <mxCell id="Nlr5EThbNXqsC1aCLq-n-7" style="edgeStyle=elbowEdgeStyle;rounded=0;orthogonalLoop=1;jettySize=auto;html=1;elbow=vertical;curved=0;" edge="1" parent="1">
          <mxGeometry relative="1" as="geometry">
            <mxPoint x="275.0000000000002" y="200.24324324324323" as="sourcePoint"/>
            <mxPoint x="449.5" y="200.24324324324323" as="targetPoint"/>
          </mxGeometry>
        </mxCell>
        <mxCell id="Nlr5EThbNXqsC1aCLq-n-8" value="model_layer.generate_maze()" style="edgeLabel;html=1;align=center;verticalAlign=middle;resizable=0;points=[];" vertex="1" connectable="0" parent="Nlr5EThbNXqsC1aCLq-n-7">
          <mxGeometry x="-0.6674" y="1" relative="1" as="geometry">
            <mxPoint x="56" y="-9" as="offset"/>
          </mxGeometry>
        </mxCell>
        <mxCell id="Nlr5EThbNXqsC1aCLq-n-9" value="dGenerator2SimpleMaze" style="shape=umlLifeline;perimeter=lifelinePerimeter;whiteSpace=wrap;html=1;container=0;dropTarget=0;collapsible=0;recursiveResize=0;outlineConnect=0;portConstraint=eastwest;newEdgeStyle={&quot;edgeStyle&quot;:&quot;elbowEdgeStyle&quot;,&quot;elbow&quot;:&quot;vertical&quot;,&quot;curved&quot;:0,&quot;rounded&quot;:0};" vertex="1" parent="1">
          <mxGeometry x="570" y="40" width="140" height="440" as="geometry"/>
        </mxCell>
        <mxCell id="Nlr5EThbNXqsC1aCLq-n-10" value="" style="html=1;points=[];perimeter=orthogonalPerimeter;outlineConnect=0;targetShapes=umlLifeline;portConstraint=eastwest;newEdgeStyle={&quot;edgeStyle&quot;:&quot;elbowEdgeStyle&quot;,&quot;elbow&quot;:&quot;vertical&quot;,&quot;curved&quot;:0,&quot;rounded&quot;:0};" vertex="1" parent="Nlr5EThbNXqsC1aCLq-n-9">
          <mxGeometry x="65" y="170" width="10" height="80" as="geometry"/>
        </mxCell>
        <mxCell id="Nlr5EThbNXqsC1aCLq-n-11" value="" style="edgeStyle=elbowEdgeStyle;rounded=0;orthogonalLoop=1;jettySize=auto;html=1;elbow=horizontal;curved=0;" edge="1" parent="1" target="Nlr5EThbNXqsC1aCLq-n-10">
          <mxGeometry relative="1" as="geometry">
            <mxPoint x="460" y="210" as="sourcePoint"/>
            <mxPoint x="630" y="210" as="targetPoint"/>
            <Array as="points">
              <mxPoint x="610" y="210"/>
            </Array>
          </mxGeometry>
        </mxCell>
        <mxCell id="Nlr5EThbNXqsC1aCLq-n-12" value="&lt;i style=&quot;border-color: var(--border-color); font-size: 12px; text-align: left; background-color: rgb(251, 251, 251);&quot;&gt;&amp;nbsp;generate_maze&amp;nbsp;&lt;/i&gt;" style="edgeLabel;html=1;align=center;verticalAlign=middle;resizable=0;points=[];" vertex="1" connectable="0" parent="Nlr5EThbNXqsC1aCLq-n-11">
          <mxGeometry x="0.02" relative="1" as="geometry">
            <mxPoint as="offset"/>
          </mxGeometry>
        </mxCell>
        <mxCell id="Nlr5EThbNXqsC1aCLq-n-18" value="" style="edgeStyle=elbowEdgeStyle;rounded=0;orthogonalLoop=1;jettySize=auto;html=1;elbow=vertical;curved=0;dashed=1;" edge="1" parent="1">
          <mxGeometry relative="1" as="geometry">
            <mxPoint x="632.61" y="290.1290322580645" as="sourcePoint"/>
            <mxPoint x="267.395714285714" y="290" as="targetPoint"/>
          </mxGeometry>
        </mxCell>
        <mxCell id="Nlr5EThbNXqsC1aCLq-n-30" value="notify" style="edgeLabel;html=1;align=center;verticalAlign=middle;resizable=0;points=[];" vertex="1" connectable="0" parent="Nlr5EThbNXqsC1aCLq-n-18">
          <mxGeometry x="-0.6504" y="2" relative="1" as="geometry">
            <mxPoint x="-1" y="-11" as="offset"/>
          </mxGeometry>
        </mxCell>
        <mxCell id="Nlr5EThbNXqsC1aCLq-n-23" style="edgeStyle=elbowEdgeStyle;rounded=0;orthogonalLoop=1;jettySize=auto;html=1;elbow=vertical;curved=0;dashed=1;" edge="1" parent="1">
          <mxGeometry relative="1" as="geometry">
            <mxPoint x="265" y="260.1388235294118" as="sourcePoint"/>
            <mxPoint x="89.9117647058822" y="260.1388235294118" as="targetPoint"/>
          </mxGeometry>
        </mxCell>
        <mxCell id="Nlr5EThbNXqsC1aCLq-n-25" value="maze" style="edgeLabel;html=1;align=center;verticalAlign=middle;resizable=0;points=[];" vertex="1" connectable="0" parent="Nlr5EThbNXqsC1aCLq-n-23">
          <mxGeometry x="-0.5838" y="-1" relative="1" as="geometry">
            <mxPoint x="-49" y="-9" as="offset"/>
          </mxGeometry>
        </mxCell>
        <mxCell id="Nlr5EThbNXqsC1aCLq-n-26" value="d2Maze" style="shape=umlLifeline;perimeter=lifelinePerimeter;whiteSpace=wrap;html=1;container=0;dropTarget=0;collapsible=0;recursiveResize=0;outlineConnect=0;portConstraint=eastwest;newEdgeStyle={&quot;edgeStyle&quot;:&quot;elbowEdgeStyle&quot;,&quot;elbow&quot;:&quot;vertical&quot;,&quot;curved&quot;:0,&quot;rounded&quot;:0};" vertex="1" parent="1">
          <mxGeometry x="730" y="230" width="140" height="210" as="geometry"/>
        </mxCell>
        <mxCell id="Nlr5EThbNXqsC1aCLq-n-28" style="edgeStyle=elbowEdgeStyle;rounded=0;orthogonalLoop=1;jettySize=auto;html=1;elbow=vertical;curved=0;endArrow=async;endFill=1;" edge="1" parent="1" source="Nlr5EThbNXqsC1aCLq-n-10">
          <mxGeometry relative="1" as="geometry">
            <mxPoint x="655" y="250" as="sourcePoint"/>
            <mxPoint x="730" y="250" as="targetPoint"/>
            <Array as="points">
              <mxPoint x="720" y="250"/>
            </Array>
          </mxGeometry>
        </mxCell>
        <mxCell id="Nlr5EThbNXqsC1aCLq-n-29" value="create" style="edgeLabel;html=1;align=center;verticalAlign=middle;resizable=0;points=[];" vertex="1" connectable="0" parent="Nlr5EThbNXqsC1aCLq-n-28">
          <mxGeometry x="-0.3548" relative="1" as="geometry">
            <mxPoint x="7" y="-15" as="offset"/>
          </mxGeometry>
        </mxCell>
        <mxCell id="Nlr5EThbNXqsC1aCLq-n-31" value="view" style="shape=umlLifeline;perimeter=lifelinePerimeter;whiteSpace=wrap;html=1;container=0;dropTarget=0;collapsible=0;recursiveResize=0;outlineConnect=0;portConstraint=eastwest;newEdgeStyle={&quot;edgeStyle&quot;:&quot;elbowEdgeStyle&quot;,&quot;elbow&quot;:&quot;vertical&quot;,&quot;curved&quot;:0,&quot;rounded&quot;:0};" vertex="1" parent="1">
          <mxGeometry x="910" y="40" width="100" height="440" as="geometry"/>
        </mxCell>
        <mxCell id="Nlr5EThbNXqsC1aCLq-n-32" value="" style="html=1;points=[];perimeter=orthogonalPerimeter;outlineConnect=0;targetShapes=umlLifeline;portConstraint=eastwest;newEdgeStyle={&quot;edgeStyle&quot;:&quot;elbowEdgeStyle&quot;,&quot;elbow&quot;:&quot;vertical&quot;,&quot;curved&quot;:0,&quot;rounded&quot;:0};" vertex="1" parent="Nlr5EThbNXqsC1aCLq-n-31">
          <mxGeometry x="45" y="260" width="10" height="180" as="geometry"/>
        </mxCell>
        <mxCell id="Nlr5EThbNXqsC1aCLq-n-38" value="" style="html=1;points=[];perimeter=orthogonalPerimeter;outlineConnect=0;targetShapes=umlLifeline;portConstraint=eastwest;newEdgeStyle={&quot;edgeStyle&quot;:&quot;elbowEdgeStyle&quot;,&quot;elbow&quot;:&quot;vertical&quot;,&quot;curved&quot;:0,&quot;rounded&quot;:0};" vertex="1" parent="Nlr5EThbNXqsC1aCLq-n-31">
          <mxGeometry x="42" y="370" width="10" height="64" as="geometry"/>
        </mxCell>
        <mxCell id="Nlr5EThbNXqsC1aCLq-n-50" style="edgeStyle=elbowEdgeStyle;rounded=0;orthogonalLoop=1;jettySize=auto;html=1;elbow=vertical;curved=0;" edge="1" parent="Nlr5EThbNXqsC1aCLq-n-31" source="Nlr5EThbNXqsC1aCLq-n-38" target="Nlr5EThbNXqsC1aCLq-n-38">
          <mxGeometry relative="1" as="geometry">
            <Array as="points">
              <mxPoint x="160" y="400"/>
            </Array>
          </mxGeometry>
        </mxCell>
        <mxCell id="Nlr5EThbNXqsC1aCLq-n-51" value="display(name)" style="edgeLabel;html=1;align=center;verticalAlign=middle;resizable=0;points=[];" vertex="1" connectable="0" parent="Nlr5EThbNXqsC1aCLq-n-50">
          <mxGeometry x="-0.567" y="3" relative="1" as="geometry">
            <mxPoint y="-5" as="offset"/>
          </mxGeometry>
        </mxCell>
        <mxCell id="Nlr5EThbNXqsC1aCLq-n-34" style="edgeStyle=elbowEdgeStyle;rounded=0;orthogonalLoop=1;jettySize=auto;html=1;elbow=vertical;curved=0;" edge="1" parent="1" source="aM9ryv3xv72pqoxQDRHE-6" target="Nlr5EThbNXqsC1aCLq-n-32">
          <mxGeometry relative="1" as="geometry"/>
        </mxCell>
        <mxCell id="Nlr5EThbNXqsC1aCLq-n-37" value="update" style="edgeLabel;html=1;align=center;verticalAlign=middle;resizable=0;points=[];" vertex="1" connectable="0" parent="Nlr5EThbNXqsC1aCLq-n-34">
          <mxGeometry x="0.8378" y="2" relative="1" as="geometry">
            <mxPoint x="-20" y="-3" as="offset"/>
          </mxGeometry>
        </mxCell>
        <mxCell id="Nlr5EThbNXqsC1aCLq-n-46" style="edgeStyle=elbowEdgeStyle;rounded=0;orthogonalLoop=1;jettySize=auto;html=1;elbow=vertical;curved=0;" edge="1" parent="1" source="Nlr5EThbNXqsC1aCLq-n-32" target="Nlr5EThbNXqsC1aCLq-n-1">
          <mxGeometry relative="1" as="geometry"/>
        </mxCell>
        <mxCell id="Nlr5EThbNXqsC1aCLq-n-47" value="get_name()" style="edgeLabel;html=1;align=center;verticalAlign=middle;resizable=0;points=[];" vertex="1" connectable="0" parent="Nlr5EThbNXqsC1aCLq-n-46">
          <mxGeometry x="-0.497" relative="1" as="geometry">
            <mxPoint x="72" y="-15" as="offset"/>
          </mxGeometry>
        </mxCell>
        <mxCell id="Nlr5EThbNXqsC1aCLq-n-49" style="edgeStyle=elbowEdgeStyle;rounded=0;orthogonalLoop=1;jettySize=auto;html=1;elbow=vertical;curved=0;" edge="1" parent="1">
          <mxGeometry relative="1" as="geometry">
            <mxPoint x="455.0000000000002" y="409.8461538461538" as="sourcePoint"/>
            <mxPoint x="959.5" y="409.8461538461538" as="targetPoint"/>
          </mxGeometry>
        </mxCell>
      </root>
    </mxGraphModel>
  </diagram>
</mxfile>